<?xml version="1.0" standalone="no"?>
<!DOCTYPE svg PUBLIC "-//W3C//DTD SVG 20010904//EN"
 "http://www.w3.org/TR/2001/REC-SVG-20010904/DTD/svg10.dtd">
<svg version="1.0" xmlns="http://www.w3.org/2000/svg"
 width="1351.000000pt" height="1351.000000pt" viewBox="0 0 1351.000000 1351.000000"
 preserveAspectRatio="xMidYMid meet">
<metadata>
Created by potrace 1.11, written by Peter Selinger 2001-2013
</metadata>
<g transform="translate(0.000000,1351.000000) scale(0.100000,-0.100000)"
fill="#000000" stroke="none">
<path d="M6588 12965 c-2 -1 -55 -5 -118 -9 -63 -3 -131 -8 -150 -11 -19 -2
-78 -9 -130 -15 -128 -15 -164 -21 -320 -51 -58 -11 -134 -27 -170 -35 -36 -9
-72 -17 -80 -19 -43 -9 -153 -39 -210 -56 -36 -11 -72 -22 -80 -24 -32 -8
-250 -84 -340 -120 -391 -153 -819 -393 -1163 -653 -240 -181 -558 -475 -728
-672 -35 -41 -67 -77 -70 -80 -3 -3 -50 -61 -105 -130 -346 -438 -613 -925
-799 -1460 -26 -74 -48 -139 -49 -145 -1 -5 -10 -35 -19 -65 -102 -348 -162
-692 -193 -1110 -7 -99 -7 -474 0 -575 18 -246 28 -336 62 -540 65 -392 180
-776 346 -1160 34 -77 162 -337 198 -400 13 -22 34 -60 48 -85 28 -51 193
-312 201 -320 3 -3 26 -34 50 -70 25 -36 47 -67 50 -70 4 -3 33 -41 66 -85 68
-91 209 -259 270 -323 l41 -44 49 92 c92 173 223 362 387 558 43 50 78 96 78
102 0 5 -37 55 -83 112 -415 516 -720 1199 -822 1838 -3 19 -7 42 -10 50 -2 8
-7 42 -10 75 -4 33 -8 74 -10 90 -12 110 -17 161 -21 221 -4 81 -4 441 0 499
11 132 17 196 20 212 2 10 7 47 11 83 4 36 9 74 11 85 3 11 7 36 10 55 10 71
46 228 79 355 107 407 286 811 519 1170 60 91 210 297 237 325 8 8 22 26 32
39 99 143 460 490 692 663 44 33 87 65 95 71 30 24 266 175 330 211 61 35 321
165 386 194 267 118 664 238 918 278 21 3 48 7 59 10 19 3 120 17 221 29 209
26 697 26 866 0 14 -2 48 -6 75 -10 245 -30 687 -134 830 -195 11 -5 54 -21
95 -36 161 -59 404 -172 554 -259 85 -49 97 -53 127 -45 158 43 237 66 319 92
52 16 102 32 110 33 19 5 150 53 255 95 44 18 131 57 193 87 l112 54 -87 68
c-198 152 -371 266 -608 402 -159 90 -437 221 -650 304 -247 97 -673 214 -910
250 -64 9 -99 15 -115 20 -8 2 -43 7 -78 10 -35 4 -72 8 -83 10 -10 2 -56 7
-102 10 -45 4 -95 9 -112 11 -33 5 -572 14 -577 9z"/>
<path d="M11453 12728 c-57 -50 -62 -56 -152 -168 -112 -140 -271 -296 -408
-403 -62 -48 -115 -87 -118 -87 -3 0 -11 -5 -18 -11 -49 -42 -256 -164 -432
-252 -298 -150 -572 -254 -1027 -393 -48 -14 -462 -120 -502 -128 -12 -3 -100
-20 -196 -40 -228 -46 -434 -81 -633 -106 -88 -12 -163 -23 -166 -25 -4 -2
-27 -6 -51 -10 -25 -3 -108 -22 -185 -41 -77 -19 -151 -37 -165 -40 -34 -7
-204 -59 -315 -96 -298 -100 -687 -281 -910 -423 -144 -92 -265 -174 -325
-222 -201 -160 -255 -207 -409 -363 -325 -327 -598 -730 -795 -1173 -36 -82
-66 -154 -66 -161 0 -7 -4 -16 -9 -21 -25 -27 -175 -526 -197 -654 -3 -14 -13
-71 -23 -126 -11 -55 -22 -122 -25 -150 -3 -27 -8 -74 -12 -103 l-6 -53 84 83
c389 390 1043 778 1773 1053 55 21 109 41 120 46 46 19 327 112 483 158 275
82 779 205 1007 245 17 3 84 14 150 26 330 57 520 108 765 205 383 151 746
374 1120 686 128 106 448 419 555 543 33 38 71 81 84 95 13 14 44 53 70 86 25
33 53 67 61 76 8 8 25 28 37 45 12 16 59 79 104 139 436 584 817 1354 844
1701 7 94 -43 122 -112 62z"/>
<path d="M10854 10769 c-16 -22 -34 -46 -39 -52 -6 -7 -26 -32 -45 -57 -19
-25 -39 -50 -45 -56 -5 -7 -37 -43 -70 -80 -33 -38 -132 -143 -221 -233 l-162
-164 21 -36 c11 -20 35 -63 54 -96 94 -164 218 -441 288 -640 9 -27 21 -59 25
-70 35 -87 120 -440 145 -600 43 -273 50 -369 50 -660 0 -211 -8 -389 -19
-450 -2 -11 -7 -47 -10 -80 -30 -255 -121 -621 -221 -890 -144 -386 -355 -763
-604 -1080 -672 -854 -1663 -1413 -2712 -1531 -30 -3 -65 -7 -79 -10 -144 -23
-660 -22 -820 1 -14 2 -54 7 -90 10 -36 4 -67 8 -70 10 -3 2 -30 6 -60 10
-154 19 -448 90 -635 153 l-110 37 -102 -67 c-87 -58 -376 -217 -400 -220 -4
-1 -38 -17 -75 -35 -37 -18 -70 -33 -73 -33 -3 0 -24 -9 -48 -20 -65 -30 -276
-110 -291 -110 -8 0 -19 -6 -25 -13 -16 -20 304 -179 569 -285 190 -75 514
-180 613 -197 17 -3 34 -8 38 -10 4 -3 52 -14 106 -26 122 -25 120 -25 163
-32 79 -14 96 -17 115 -21 12 -2 48 -7 80 -11 33 -4 69 -9 80 -11 18 -4 52 -7
170 -19 236 -24 716 -24 915 -1 19 3 60 7 90 10 102 11 281 37 350 51 14 3 41
8 60 11 85 15 407 97 535 138 333 104 686 260 980 430 55 32 314 196 330 208
6 5 46 34 90 65 268 191 592 484 811 734 90 102 102 117 181 216 360 456 650
999 827 1552 67 208 138 496 167 681 5 36 12 77 14 91 6 33 12 79 20 154 4 33
8 71 10 84 26 161 26 871 0 1009 -1 9 -6 44 -10 77 -16 144 -28 221 -60 385
-13 64 -38 180 -50 230 -32 131 -134 457 -175 555 -134 328 -210 488 -335 704
-73 127 -201 331 -208 331 -2 0 -16 -18 -33 -41z"/>
<path d="M10077 9919 c-45 -24 -70 -44 -187 -154 -338 -318 -717 -547 -1235
-748 -259 -101 -680 -233 -835 -263 -14 -2 -31 -7 -39 -10 -15 -5 -178 -42
-218 -50 -13 -2 -33 -6 -45 -8 -13 -2 -44 -9 -69 -15 -26 -6 -105 -20 -175
-31 -71 -11 -140 -23 -154 -25 -14 -2 -70 -11 -125 -19 -55 -9 -109 -17 -120
-20 -11 -3 -53 -12 -93 -20 -85 -18 -263 -63 -307 -76 -16 -6 -88 -28 -160
-50 -136 -43 -312 -106 -405 -147 -30 -13 -64 -28 -75 -33 -120 -51 -297 -141
-437 -223 -85 -49 -398 -263 -418 -286 -3 -4 -43 -38 -90 -77 -170 -142 -389
-375 -513 -545 -157 -215 -291 -446 -382 -659 -20 -47 -40 -94 -45 -105 -78
-179 -176 -557 -195 -755 -3 -25 -7 -55 -10 -67 -7 -30 -3 -29 32 5 273 267
721 537 1288 777 309 131 785 285 1200 389 209 52 574 132 640 141 88 12 418
82 517 111 901 259 1744 914 2340 1819 320 485 514 979 443 1128 -15 33 -21
37 -54 37 -20 -1 -53 -10 -74 -21z"/>
<path d="M6565 6513 c-90 -34 -498 -146 -608 -167 -175 -34 -293 -57 -342 -66
-75 -13 -83 -15 -175 -40 -41 -11 -82 -22 -90 -25 -233 -60 -608 -226 -840
-372 -215 -135 -355 -246 -536 -427 -293 -294 -534 -664 -684 -1051 -17 -44
-35 -89 -40 -100 -25 -58 -126 -399 -136 -465 -3 -19 -8 -38 -10 -41 -2 -3 -6
-21 -9 -40 -3 -19 -10 -56 -15 -84 -16 -77 -17 -86 -25 -145 -3 -30 -8 -66
-10 -80 -24 -157 -39 -490 -23 -490 4 0 8 4 8 9 0 5 6 16 13 23 6 7 38 45 69
83 167 207 461 453 764 641 61 38 119 75 130 81 10 7 74 42 141 78 231 125
508 249 757 339 151 55 175 66 292 136 172 104 323 222 474 371 183 181 286
312 466 594 22 35 26 43 83 148 23 43 46 86 51 95 84 151 242 570 294 782 2 8
11 43 20 78 23 87 35 152 27 151 -3 -1 -24 -8 -46 -16z"/>
<path d="M2769 2096 c-2 -2 -24 -6 -49 -9 -320 -38 -588 -224 -684 -474 -44
-115 -55 -182 -51 -326 4 -193 41 -305 141 -430 99 -123 293 -234 459 -261
117 -20 192 -27 275 -25 441 7 740 193 848 529 32 97 34 114 37 252 3 137 -17
245 -65 338 -100 197 -286 332 -535 385 -71 16 -364 32 -376 21z m284 -363
c114 -54 175 -127 212 -256 17 -58 17 -177 1 -252 -12 -56 -75 -171 -113 -206
-152 -141 -378 -156 -550 -38 -194 134 -207 481 -25 664 87 87 185 124 318
120 78 -2 102 -7 157 -32z"/>
<path d="M4669 2096 c-2 -2 -29 -7 -59 -11 -84 -11 -217 -52 -305 -96 -199
-98 -335 -260 -391 -469 -25 -91 -25 -329 -1 -420 68 -255 284 -444 571 -501
28 -6 62 -13 76 -15 14 -3 90 -7 170 -9 339 -9 601 91 763 290 27 33 66 96 87
140 35 72 47 108 68 210 14 65 6 289 -12 354 -57 208 -216 379 -427 461 -42
16 -87 31 -100 34 -13 2 -35 7 -49 10 -14 3 -38 9 -55 12 -34 7 -330 16 -336
10z m261 -347 c103 -36 189 -121 232 -226 33 -83 32 -262 -1 -345 -95 -242
-351 -344 -585 -233 -170 80 -249 262 -206 472 39 185 153 299 345 347 33 8
177 -2 215 -15z"/>
<path d="M6366 2072 c-2 -2 -108 -3 -235 -4 -165 0 -231 -4 -231 -12 -2 -115
-11 -477 -14 -556 -9 -218 -17 -387 -21 -450 -10 -160 -16 -257 -20 -285 -2
-16 -7 -60 -10 -98 l-7 -67 448 4 c247 2 460 6 474 9 14 3 45 8 69 12 141 21
305 128 394 255 174 249 200 648 59 903 -89 161 -234 252 -447 283 -50 7 -453
13 -459 6z m331 -335 c93 -32 164 -125 190 -247 21 -103 0 -272 -47 -375 -30
-66 -118 -149 -177 -169 -76 -25 -90 -27 -213 -31 -108 -4 -167 5 -157 22 3 5
8 76 11 158 7 159 15 347 21 455 2 36 4 95 4 132 1 80 -11 75 181 73 102 0
148 -5 187 -18z"/>
<path d="M12155 2072 c-1 -2 -113 -3 -248 -4 l-244 0 0 -117 c0 -228 -22 -853
-38 -1086 -3 -41 -13 -160 -20 -229 l-4 -38 482 5 c265 3 498 8 517 12 236 44
363 191 355 410 -3 93 -27 163 -76 219 -48 54 -90 81 -161 103 l-53 16 42 12
c173 52 271 242 226 440 -31 136 -110 210 -262 247 -41 10 -507 19 -516 10z
m281 -314 c73 -40 82 -160 15 -213 -41 -33 -94 -43 -235 -44 l-134 -2 4 68 c3
37 6 97 8 133 3 36 5 69 5 74 1 4 70 6 154 4 117 -3 159 -8 183 -20z m10 -572
c47 -28 67 -74 62 -141 -6 -66 -29 -102 -84 -130 -33 -17 -64 -20 -202 -23
l-163 -4 5 93 c2 52 5 125 5 163 l1 68 173 -4 c146 -3 177 -6 203 -22z"/>
<path d="M729 1932 c-1 -75 -2 -180 -4 -232 -8 -250 -16 -452 -20 -525 -2 -44
-7 -127 -10 -185 -3 -58 -8 -121 -10 -140 -2 -19 -7 -69 -10 -110 -3 -41 -8
-90 -10 -107 l-4 -33 244 0 244 0 1 152 c1 84 3 194 5 243 2 50 4 111 4 136
l1 47 281 0 c154 0 282 1 283 3 2 2 6 75 9 162 l5 157 -280 0 -279 0 3 121 c2
66 6 123 10 125 4 3 146 5 315 4 373 -2 345 -2 348 2 2 2 6 64 10 138 4 74 8
145 10 157 l3 21 -574 1 -574 0 -1 -137z"/>
<path d="M8159 1922 c0 -81 -2 -190 -4 -242 -5 -163 -16 -412 -20 -470 -2 -30
-7 -98 -10 -150 -3 -52 -8 -115 -10 -140 -2 -25 -7 -83 -10 -130 -4 -47 -8
-109 -11 -138 l-4 -52 242 2 242 3 3 125 c2 69 5 161 7 205 2 44 4 122 5 173
l1 92 296 0 295 0 -6 -132 c-3 -73 -8 -158 -10 -188 -2 -30 -7 -98 -10 -150
-4 -52 -9 -103 -11 -112 -5 -17 11 -18 240 -18 l246 0 1 108 c2 271 13 660 24
792 2 25 6 97 10 160 4 63 8 135 10 160 2 25 6 91 10 147 l7 102 -241 0 -241
0 -1 -147 c-1 -133 -3 -211 -10 -354 l-2 -48 -294 0 -295 0 7 128 c3 70 8 147
10 172 2 25 6 91 10 147 l7 102 -241 0 -241 0 -1 -147z"/>
<path d="M9949 2012 c-1 -31 -2 -75 -3 -97 -2 -22 -6 -112 -10 -200 -8 -176
-13 -257 -20 -325 -25 -234 -24 -411 3 -500 47 -150 213 -259 466 -304 107
-19 390 -14 504 9 259 51 419 177 460 360 16 75 20 118 26 250 5 121 12 247
20 340 2 28 7 88 10 135 3 47 8 114 10 150 3 36 7 104 11 153 l6 87 -241 0
-241 0 -1 -52 c-1 -29 -2 -69 -4 -88 -1 -19 -5 -98 -9 -175 -4 -77 -9 -167
-11 -200 -3 -33 -7 -91 -10 -130 -2 -38 -7 -104 -10 -145 -16 -224 -70 -330
-189 -365 -64 -19 -116 -19 -187 1 -69 19 -111 57 -136 122 -25 66 -25 339 2
672 1 19 6 80 9 135 4 55 9 128 12 162 l5 62 -236 0 -235 0 -1 -57z"/>
<path d="M9655 20 l-40 -19 145 1 c142 0 144 0 110 16 -51 23 -165 24 -215 2z"/>
<path d="M3653 15 c0 -13 34 -15 276 -13 176 2 276 7 276 13 0 6 -100 11 -276
13 -242 2 -276 0 -276 -13z"/>
<path d="M5780 15 c0 -11 12 -15 45 -15 33 0 45 4 45 15 0 11 -12 15 -45 15
-33 0 -45 -4 -45 -15z"/>
<path d="M6120 15 c0 -11 12 -15 45 -15 33 0 45 4 45 15 0 11 -12 15 -45 15
-33 0 -45 -4 -45 -15z"/>
<path d="M8150 15 c0 -11 12 -15 45 -15 33 0 45 4 45 15 0 11 -12 15 -45 15
-33 0 -45 -4 -45 -15z"/>
<path d="M8810 15 c0 -11 12 -15 45 -15 33 0 45 4 45 15 0 11 -12 15 -45 15
-33 0 -45 -4 -45 -15z"/>
</g>
</svg>
